<svg width="42" height="43" viewBox="0 0 42 43" fill="none" xmlns="http://www.w3.org/2000/svg">
<path d="M17.4891 21.3223C14.5359 21.3223 12.1406 23.7176 12.1406 26.6707C12.1406 27.9176 12.5672 29.1316 13.3875 30.0832L13.2563 30.1488L21 36.252L27.7594 30.9035L28.5141 30.3129L28.4484 30.2801C29.3672 29.2957 29.8594 28.016 29.8594 26.6707C29.8594 23.7176 27.4641 21.3223 24.5109 21.3223C23.1984 21.3223 21.9516 21.8145 21 22.6348C20.0156 21.8145 18.7687 21.3223 17.4891 21.3223ZM24.5109 22.6348C26.7422 22.6348 28.5469 24.4395 28.5469 26.6707C28.5469 27.9504 27.9562 29.0988 26.9391 29.8863L26.1516 30.477L21 34.5785L14.9953 29.8207L14.9297 29.7879C14.0109 29.0332 13.4531 27.8848 13.4531 26.6707C13.4531 24.4395 15.2578 22.6348 17.4891 22.6348C18.6375 22.6348 19.7531 23.127 20.5078 24.0129L21 24.5707L21.4922 24.0129C22.2469 23.127 23.3625 22.6348 24.5109 22.6348Z" fill="#31332E"/>
<path d="M36.4217 4.5877H30.1873V10.2314L20.9998 1.04395L0.393555 21.6502L2.95293 24.2096L5.57793 21.5846V41.9939H36.4217V21.5846L39.0467 24.2096L41.6061 21.6502L36.4217 16.4658V4.5877ZM35.1092 20.3377V40.6814H6.89043V20.3377H6.8248L20.9998 6.16269L35.1748 20.3377H35.1092ZM39.7686 21.6502L39.0467 22.3721L20.9998 4.3252L2.95293 22.3721L2.23105 21.6502L20.9998 2.88145L31.4998 13.3814V5.9002H35.1092V16.9908L39.7686 21.6502Z" fill="#31332E"/>
</svg>
