<svg width="40" height="40" viewBox="0 0 40 40" fill="none" xmlns="http://www.w3.org/2000/svg">
<path fill-rule="evenodd" clip-rule="evenodd" d="M10.3872 35.8157C9.89312 36.3098 9.15203 36.3098 8.65796 35.8157L1 38.3478L3.53207 30.6898C3.03801 30.1958 3.03801 29.4547 3.53207 28.9606L9.95488 24.267C10.4489 23.773 11.19 23.773 11.6841 24.267L15.0808 27.6637C15.5748 28.1578 15.5748 28.8989 15.0808 29.3929L10.3872 35.8157Z" stroke="#31332E"/>
<path d="M6.683 32.6045L1.43359 37.9157" stroke="#31332E"/>
<path d="M7.73043 33.1601C8.71956 33.1601 9.5214 32.3582 9.5214 31.3691C9.5214 30.38 8.71956 29.5781 7.73043 29.5781C6.7413 29.5781 5.93945 30.38 5.93945 31.3691C5.93945 32.3582 6.7413 33.1601 7.73043 33.1601Z" stroke="#31332E"/>
<path fill-rule="evenodd" clip-rule="evenodd" d="M17.1783 27.2317C15.5108 28.8992 14.7697 27.3552 13.3493 25.9348C11.9289 24.5144 10.4467 23.7733 12.0524 22.1058C13.7198 20.4384 35.8909 -1.73266 38.4229 0.861164C41.0168 3.45499 18.8457 25.626 17.1783 27.2317Z" stroke="#31332E"/>
<path d="M13.6602 20.9941L18.3537 25.626" stroke="#31332E"/>
</svg>
