<svg width="42" height="42" viewBox="0 0 42 42" fill="none" xmlns="http://www.w3.org/2000/svg">
<path d="M5.92249 36.6514C5.9471 35.9459 6.67718 35.2979 7.12014 34.7236C7.77639 33.8705 7.66155 32.8615 7.66155 31.8525C7.45647 32.0576 7.25139 32.2627 7.04632 32.4678C7.63694 32.4678 8.22757 32.4678 8.81819 32.4678C8.61311 32.2627 8.40803 32.0576 8.20296 31.8525C8.20296 32.7057 8.10452 33.5998 8.50647 34.3791C8.67053 34.699 8.95764 34.9943 9.17913 35.2814C9.38421 35.5521 9.67132 35.9049 9.81077 36.1264C9.96663 36.3807 9.95022 36.6842 9.95022 36.9631C9.95022 37.3732 9.95022 37.7834 9.95022 38.1936C9.95022 38.8744 9.95022 39.5471 9.95022 40.2279C10.1553 40.0229 10.3604 39.8178 10.5655 39.6127C8.80999 39.6127 7.06272 39.6127 5.30725 39.6127C4.51155 39.6127 4.51155 40.8432 5.30725 40.8432C7.06272 40.8432 8.80999 40.8432 10.5655 40.8432C10.9018 40.8432 11.1807 40.5643 11.1807 40.2279C11.1807 39.5799 11.1807 38.9236 11.1807 38.2756C11.1807 37.5619 11.2463 36.8154 11.1151 36.11C11.0248 35.6342 10.7131 35.265 10.4342 34.8959C10.1799 34.5678 9.92561 34.2314 9.66311 33.9033C9.30218 33.4357 9.44163 32.4842 9.44163 31.8525C9.44163 31.5162 9.16272 31.2373 8.82639 31.2373C8.23577 31.2373 7.64514 31.2373 7.05452 31.2373C6.71819 31.2373 6.43928 31.5162 6.43928 31.8525C6.43928 32.2135 6.43928 32.5744 6.43928 32.9271C6.43928 33.3209 6.39007 33.6818 6.18499 33.9443C5.54514 34.7646 4.74124 35.5521 4.70022 36.6514C4.65921 37.4471 5.88967 37.4471 5.92249 36.6514Z" fill="#31332E"/>
<path d="M26.7492 27.4063C26.7492 31.4258 26.7492 35.4371 26.7492 39.4566C26.7492 39.7109 26.7492 39.9652 26.7492 40.2277C26.9543 40.0227 27.1594 39.8176 27.3645 39.6125C23.3531 39.6125 19.3336 39.6125 15.3223 39.6125C15.0926 39.6125 14.8629 39.6125 14.625 39.6125C14.8301 39.8176 15.0352 40.0227 15.2402 40.2277C15.2402 36.2082 15.2402 32.1969 15.2402 28.1773C15.2402 27.923 15.2402 27.6688 15.2402 27.4063C15.0352 27.6113 14.8301 27.8164 14.625 28.0215C18.6363 28.0215 22.6559 28.0215 26.6672 28.0215C26.8969 28.0215 27.1266 28.0215 27.3645 28.0215C28.1602 28.0215 28.1602 26.791 27.3645 26.791C23.3531 26.791 19.3336 26.791 15.3223 26.791C15.0926 26.791 14.8629 26.791 14.625 26.791C14.2887 26.791 14.0098 27.0699 14.0098 27.4063C14.0098 31.4258 14.0098 35.4371 14.0098 39.4566C14.0098 39.7109 14.0098 39.9652 14.0098 40.2277C14.0098 40.5641 14.2887 40.843 14.625 40.843C18.6363 40.843 22.6559 40.843 26.6672 40.843C26.8969 40.843 27.1266 40.843 27.3645 40.843C27.7008 40.843 27.9797 40.5641 27.9797 40.2277C27.9797 36.2082 27.9797 32.1969 27.9797 28.1773C27.9797 27.923 27.9797 27.6688 27.9797 27.4063C27.9797 26.6187 26.7492 26.6187 26.7492 27.4063Z" fill="#31332E"/>
<path d="M40.1144 39.6125C36.1031 39.6125 32.0836 39.6125 28.0723 39.6125C27.8426 39.6125 27.6129 39.6125 27.375 39.6125C27.5801 39.8176 27.7852 40.0227 27.9902 40.2277C27.9902 36.2082 27.9902 32.1969 27.9902 28.1773C27.9902 27.923 27.9902 27.6688 27.9902 27.4063C27.7852 27.6113 27.5801 27.8164 27.375 28.0215C31.3863 28.0215 35.4059 28.0215 39.4172 28.0215C39.6469 28.0215 39.8766 28.0215 40.1144 28.0215C39.9094 27.8164 39.7043 27.6113 39.4992 27.4063C39.4992 31.4258 39.4992 35.4371 39.4992 39.4566C39.4992 39.7109 39.4992 39.9652 39.4992 40.2277C39.4992 41.0234 40.7297 41.0234 40.7297 40.2277C40.7297 36.2082 40.7297 32.1969 40.7297 28.1773C40.7297 27.923 40.7297 27.6688 40.7297 27.4063C40.7297 27.0699 40.4508 26.791 40.1144 26.791C36.1031 26.791 32.0836 26.791 28.0723 26.791C27.8426 26.791 27.6129 26.791 27.375 26.791C27.0387 26.791 26.7598 27.0699 26.7598 27.4063C26.7598 31.4258 26.7598 35.4371 26.7598 39.4566C26.7598 39.7109 26.7598 39.9652 26.7598 40.2277C26.7598 40.5641 27.0387 40.843 27.375 40.843C31.3863 40.843 35.4059 40.843 39.4172 40.843C39.6469 40.843 39.8766 40.843 40.1144 40.843C40.9019 40.843 40.9019 39.6125 40.1144 39.6125Z" fill="#31332E"/>
<path d="M14.0109 14.5928C14.0109 18.6123 14.0109 22.6236 14.0109 26.6432C14.0109 26.8975 14.0109 27.1518 14.0109 27.4143C14.216 27.2092 14.4211 27.0041 14.6262 26.799C10.6148 26.799 6.59531 26.799 2.58398 26.799C2.3543 26.799 2.12461 26.799 1.88672 26.799C2.0918 27.0041 2.29688 27.2092 2.50195 27.4143C2.50195 23.3947 2.50195 19.3834 2.50195 15.3639C2.50195 15.1096 2.50195 14.8553 2.50195 14.5928C2.29688 14.7979 2.0918 15.0029 1.88672 15.208C5.89805 15.208 9.91758 15.208 13.9289 15.208C14.1586 15.208 14.3883 15.208 14.6262 15.208C15.4219 15.208 15.4219 13.9775 14.6262 13.9775C10.6148 13.9775 6.59531 13.9775 2.58398 13.9775C2.3543 13.9775 2.12461 13.9775 1.88672 13.9775C1.55039 13.9775 1.27148 14.2564 1.27148 14.5928C1.27148 18.6123 1.27148 22.6236 1.27148 26.6432C1.27148 26.8975 1.27148 27.1518 1.27148 27.4143C1.27148 27.7506 1.55039 28.0295 1.88672 28.0295C5.89805 28.0295 9.91758 28.0295 13.9289 28.0295C14.1586 28.0295 14.3883 28.0295 14.6262 28.0295C14.9625 28.0295 15.2414 27.7506 15.2414 27.4143C15.2414 23.3947 15.2414 19.3834 15.2414 15.3639C15.2414 15.1096 15.2414 14.8553 15.2414 14.5928C15.2414 13.7971 14.0109 13.7971 14.0109 14.5928Z" fill="#31332E"/>
<path d="M14.6379 13.9777C10.6266 13.9777 6.60703 13.9777 2.5957 13.9777C2.36602 13.9777 2.13633 13.9777 1.89844 13.9777C2.10352 14.1828 2.30859 14.3879 2.51367 14.593C2.51367 10.5734 2.51367 6.56211 2.51367 2.54258C2.51367 2.28828 2.51367 2.03398 2.51367 1.77148C2.30859 1.97656 2.10352 2.18164 1.89844 2.38672C5.90977 2.38672 9.9293 2.38672 13.9406 2.38672C14.1703 2.38672 14.4 2.38672 14.6379 2.38672C14.4328 2.18164 14.2277 1.97656 14.0227 1.77148C14.0227 5.79102 14.0227 9.80235 14.0227 13.8219C14.0227 14.0762 14.0227 14.3305 14.0227 14.593C14.0227 15.3887 15.2531 15.3887 15.2531 14.593C15.2531 10.5734 15.2531 6.56211 15.2531 2.54258C15.2531 2.28828 15.2531 2.03398 15.2531 1.77148C15.2531 1.43516 14.9742 1.15625 14.6379 1.15625C10.6266 1.15625 6.60703 1.15625 2.5957 1.15625C2.36602 1.15625 2.13633 1.15625 1.89844 1.15625C1.56211 1.15625 1.2832 1.43516 1.2832 1.77148C1.2832 5.79102 1.2832 9.80235 1.2832 13.8219C1.2832 14.0762 1.2832 14.3305 1.2832 14.593C1.2832 14.9293 1.56211 15.2082 1.89844 15.2082C5.90977 15.2082 9.9293 15.2082 13.9406 15.2082C14.1703 15.2082 14.4 15.2082 14.6379 15.2082C15.4254 15.2082 15.4254 13.9777 14.6379 13.9777Z" fill="#31332E"/>
<path d="M27.3742 26.7912C23.3629 26.7912 19.3434 26.7912 15.332 26.7912C15.1023 26.7912 14.8727 26.7912 14.6348 26.7912C14.8398 26.9963 15.0449 27.2014 15.25 27.4065C15.25 23.3869 15.25 19.3756 15.25 15.3561C15.25 15.1018 15.25 14.8475 15.25 14.585C15.0449 14.79 14.8398 14.9951 14.6348 15.2002C18.6461 15.2002 22.6656 15.2002 26.677 15.2002C26.9066 15.2002 27.1363 15.2002 27.3742 15.2002C27.1691 14.9951 26.9641 14.79 26.759 14.585C26.759 18.6045 26.759 22.6158 26.759 26.6354C26.759 26.8897 26.759 27.144 26.759 27.4065C26.759 28.2022 27.9895 28.2022 27.9895 27.4065C27.9895 23.3869 27.9895 19.3756 27.9895 15.3561C27.9895 15.1018 27.9895 14.8475 27.9895 14.585C27.9895 14.2486 27.7106 13.9697 27.3742 13.9697C23.3629 13.9697 19.3434 13.9697 15.332 13.9697C15.1023 13.9697 14.8727 13.9697 14.6348 13.9697C14.2984 13.9697 14.0195 14.2486 14.0195 14.585C14.0195 18.6045 14.0195 22.6158 14.0195 26.6354C14.0195 26.8897 14.0195 27.144 14.0195 27.4065C14.0195 27.7428 14.2984 28.0217 14.6348 28.0217C18.6461 28.0217 22.6656 28.0217 26.677 28.0217C26.9066 28.0217 27.1363 28.0217 27.3742 28.0217C28.1617 28.0217 28.1617 26.7912 27.3742 26.7912Z" fill="#31332E"/>
<path d="M9.54844 24.166C9.54844 25.2488 9.54844 26.3316 9.54844 27.4145C9.75352 27.2094 9.95859 27.0043 10.1637 26.7992C7.40742 26.7992 4.64297 26.7992 1.88672 26.7992C2.0918 27.0043 2.29688 27.2094 2.50195 27.4145C2.50195 26.3316 2.50195 25.2488 2.50195 24.166C2.29688 24.3711 2.0918 24.5762 1.88672 24.7812C4.64297 24.7812 7.40742 24.7812 10.1637 24.7812C10.9594 24.7812 10.9594 23.5508 10.1637 23.5508C7.40742 23.5508 4.64297 23.5508 1.88672 23.5508C1.55039 23.5508 1.27148 23.8297 1.27148 24.166C1.27148 25.2488 1.27148 26.3316 1.27148 27.4145C1.27148 27.7508 1.55039 28.0297 1.88672 28.0297C4.64297 28.0297 7.40742 28.0297 10.1637 28.0297C10.5 28.0297 10.7789 27.7508 10.7789 27.4145C10.7789 26.3316 10.7789 25.2488 10.7789 24.166C10.7789 23.3703 9.54844 23.3703 9.54844 24.166Z" fill="#31332E"/>
<path d="M7.93242 23.5512C5.91445 23.5512 3.90469 23.5512 1.88672 23.5512C2.0918 23.7563 2.29687 23.9613 2.50195 24.1664C2.50195 23.0836 2.50195 22.0008 2.50195 20.918C2.29687 21.123 2.0918 21.3281 1.88672 21.5332C3.90469 21.5332 5.91445 21.5332 7.93242 21.5332C7.72734 21.3281 7.52226 21.123 7.31719 20.918C7.31719 22.0008 7.31719 23.0836 7.31719 24.1664C7.31719 24.9621 8.54766 24.9621 8.54766 24.1664C8.54766 23.0836 8.54766 22.0008 8.54766 20.918C8.54766 20.5816 8.26875 20.3027 7.93242 20.3027C5.91445 20.3027 3.90469 20.3027 1.88672 20.3027C1.55039 20.3027 1.27148 20.5816 1.27148 20.918C1.27148 22.0008 1.27148 23.0836 1.27148 24.1664C1.27148 24.5027 1.55039 24.7816 1.88672 24.7816C3.90469 24.7816 5.91445 24.7816 7.93242 24.7816C8.72812 24.7816 8.72812 23.5512 7.93242 23.5512Z" fill="#31332E"/>
<path d="M10.5659 39.6123C8.81045 39.6123 7.06318 39.6123 5.30771 39.6123C4.51201 39.6123 4.51201 40.8428 5.30771 40.8428C7.06318 40.8428 8.81045 40.8428 10.5659 40.8428C11.3616 40.8428 11.3616 39.6123 10.5659 39.6123Z" fill="#31332E"/>
<path d="M14.0109 27.4063C14.0109 31.4258 14.0109 35.4371 14.0109 39.4566C14.0109 39.7109 14.0109 39.9652 14.0109 40.2277C14.216 40.0227 14.4211 39.8176 14.6262 39.6125C10.6148 39.6125 6.59531 39.6125 2.58398 39.6125C2.3543 39.6125 2.12461 39.6125 1.88672 39.6125C2.0918 39.8176 2.29688 40.0227 2.50195 40.2277C2.50195 36.2082 2.50195 32.1969 2.50195 28.1773C2.50195 27.923 2.50195 27.6688 2.50195 27.4063C2.29688 27.6113 2.0918 27.8164 1.88672 28.0215C5.89805 28.0215 9.91758 28.0215 13.9289 28.0215C14.1586 28.0215 14.3883 28.0215 14.6262 28.0215C15.4219 28.0215 15.4219 26.791 14.6262 26.791C10.6148 26.791 6.59531 26.791 2.58398 26.791C2.3543 26.791 2.12461 26.791 1.88672 26.791C1.55039 26.791 1.27148 27.0699 1.27148 27.4063C1.27148 31.4258 1.27148 35.4371 1.27148 39.4566C1.27148 39.7109 1.27148 39.9652 1.27148 40.2277C1.27148 40.5641 1.55039 40.843 1.88672 40.843C5.89805 40.843 9.91758 40.843 13.9289 40.843C14.1586 40.843 14.3883 40.843 14.6262 40.843C14.9625 40.843 15.2414 40.5641 15.2414 40.2277C15.2414 36.2082 15.2414 32.1969 15.2414 28.1773C15.2414 27.923 15.2414 27.6688 15.2414 27.4063C15.2414 26.6187 14.0109 26.6187 14.0109 27.4063Z" fill="#31332E"/>
<path d="M4.69141 36.6512C4.69141 37.8406 4.69141 39.0383 4.69141 40.2277C4.69141 41.0234 5.92187 41.0234 5.92187 40.2277C5.92187 39.0383 5.92187 37.8406 5.92187 36.6512C5.92187 35.8637 4.69141 35.8637 4.69141 36.6512Z" fill="#31332E"/>
<path d="M24.1109 26.7906C22.0355 26.7906 19.9602 26.7906 17.8848 26.7906C18.0898 26.9957 18.2949 27.2008 18.5 27.4059C18.5 25.1418 18.5 22.8777 18.5 20.6055C18.2949 20.8105 18.0898 21.0156 17.8848 21.2207C19.9602 21.2207 22.0355 21.2207 24.1109 21.2207C23.9059 21.0156 23.7008 20.8105 23.4957 20.6055C23.4957 22.8695 23.4957 25.1336 23.4957 27.4059C23.4957 28.2016 24.7262 28.2016 24.7262 27.4059C24.7262 25.1418 24.7262 22.8777 24.7262 20.6055C24.7262 20.2691 24.4473 19.9902 24.1109 19.9902C22.0355 19.9902 19.9602 19.9902 17.8848 19.9902C17.5484 19.9902 17.2695 20.2691 17.2695 20.6055C17.2695 22.8695 17.2695 25.1336 17.2695 27.4059C17.2695 27.7422 17.5484 28.0211 17.8848 28.0211C19.9602 28.0211 22.0355 28.0211 24.1109 28.0211C24.9066 28.0211 24.9066 26.7906 24.1109 26.7906Z" fill="#31332E"/>
<path d="M20.3828 20.6144C20.3828 22.8784 20.3828 25.1425 20.3828 27.4147C20.3828 28.2105 21.6133 28.2105 21.6133 27.4147C21.6133 25.1507 21.6133 22.8866 21.6133 20.6144C21.6133 19.8187 20.3828 19.8187 20.3828 20.6144Z" fill="#31332E"/>
<path d="M17.8917 24.625C19.9671 24.625 22.0425 24.625 24.1179 24.625C24.9136 24.625 24.9136 23.3945 24.1179 23.3945C22.0425 23.3945 19.9671 23.3945 17.8917 23.3945C17.096 23.3945 17.096 24.625 17.8917 24.625Z" fill="#31332E"/>
<path d="M22.335 19.9988C21.8921 19.9988 21.4409 19.9988 20.9979 19.9988C21.203 20.2039 21.4081 20.409 21.6132 20.6141C21.6132 20.2941 21.6132 19.9824 21.6132 19.6625C21.6132 19.3344 21.5557 18.9816 21.9495 18.875C22.2612 18.793 22.6386 18.8914 22.7288 19.2113C22.8108 19.523 22.7124 19.9742 22.335 19.9988C21.5475 20.0398 21.5393 21.2703 22.335 21.2293C23.3686 21.1719 23.9593 20.3926 23.9593 19.4C23.9593 18.4156 23.2866 17.6445 22.2694 17.6445C21.3425 17.6445 20.4401 18.1203 20.3827 19.1539C20.3581 19.6379 20.3745 20.1301 20.3745 20.6141C20.3745 20.9504 20.6534 21.2293 20.9897 21.2293C21.4327 21.2293 21.8839 21.2293 22.3268 21.2293C23.1308 21.2293 23.1307 19.9988 22.335 19.9988Z" fill="#31332E"/>
<path d="M21.0078 19.9986C20.5813 19.9986 20.1465 19.9986 19.7199 19.9986C19.2852 19.9986 19.0965 19.3506 19.359 19.0307C19.6215 18.7107 20.3926 18.8256 20.3926 19.2932C20.3926 19.7361 20.3926 20.1791 20.3926 20.6139C20.3926 21.4096 21.6231 21.4096 21.6231 20.6139C21.6231 19.974 21.7543 19.1291 21.4508 18.5385C20.9012 17.4803 19.4246 17.3818 18.5633 18.0791C18.1285 18.44 18.0547 19.0143 18.0547 19.5393C18.0547 20.1627 18.3418 20.6713 18.8586 21.0076C19.4328 21.385 20.368 21.2291 21.016 21.2291C21.8035 21.2291 21.8035 19.9986 21.0078 19.9986Z" fill="#31332E"/>
<path d="M40.1144 39.6125C37.3418 39.6125 34.5773 39.6125 31.8047 39.6125C32.0098 39.8176 32.2148 40.0227 32.4199 40.2277C32.4199 37.1188 32.4199 34.0016 32.4199 30.8926C32.2148 31.0977 32.0098 31.3027 31.8047 31.5078C34.5773 31.5078 37.3418 31.5078 40.1144 31.5078C39.9094 31.3027 39.7043 31.0977 39.4992 30.8926C39.4992 34.0016 39.4992 37.1188 39.4992 40.2277C39.4992 41.0234 40.7297 41.0234 40.7297 40.2277C40.7297 37.1188 40.7297 34.0016 40.7297 30.8926C40.7297 30.5563 40.4508 30.2773 40.1144 30.2773C37.3418 30.2773 34.5773 30.2773 31.8047 30.2773C31.4684 30.2773 31.1895 30.5563 31.1895 30.8926C31.1895 34.0016 31.1895 37.1188 31.1895 40.2277C31.1895 40.5641 31.4684 40.843 31.8047 40.843C34.5773 40.843 37.3418 40.843 40.1144 40.843C40.9019 40.843 40.9019 39.6125 40.1144 39.6125Z" fill="#31332E"/>
<path d="M35.3379 30.9005C35.3379 34.0095 35.3379 37.1185 35.3379 40.2356C35.3379 41.0314 36.5684 41.0314 36.5684 40.2356C36.5684 37.1267 36.5684 34.0177 36.5684 30.9005C36.5684 30.1048 35.3379 30.1048 35.3379 30.9005Z" fill="#31332E"/>
<path d="M31.8047 39.6127C30.3281 39.6127 28.8516 39.6127 27.375 39.6127C27.5801 39.8178 27.7852 40.0229 27.9902 40.2279C27.9902 38.0951 27.9902 35.9541 27.9902 33.8213C27.7852 34.0264 27.5801 34.2314 27.375 34.4365C28.8516 34.4365 30.3281 34.4365 31.8047 34.4365C31.5996 34.2314 31.3945 34.0264 31.1895 33.8213C31.1895 35.9541 31.1895 38.0951 31.1895 40.2279C31.1895 41.0236 32.4199 41.0236 32.4199 40.2279C32.4199 38.0951 32.4199 35.9541 32.4199 33.8213C32.4199 33.485 32.141 33.2061 31.8047 33.2061C30.3281 33.2061 28.8516 33.2061 27.375 33.2061C27.0387 33.2061 26.7598 33.485 26.7598 33.8213C26.7598 35.9541 26.7598 38.0951 26.7598 40.2279C26.7598 40.5643 27.0387 40.8432 27.375 40.8432C28.8516 40.8432 30.3281 40.8432 31.8047 40.8432C32.6004 40.8432 32.6004 39.6127 31.8047 39.6127Z" fill="#31332E"/>
</svg>
